<svg width="14" height="7" viewBox="0 0 14 7" fill="none" xmlns="http://www.w3.org/2000/svg">
<path d="M14.0013 1.16105C14.0018 1.31044 13.9688 1.45805 13.9048 1.59303C13.8407 1.72801 13.7473 1.84693 13.6313 1.94105L7.63125 6.77105C7.45232 6.91813 7.22788 6.99853 6.99625 6.99853C6.76463 6.99853 6.54018 6.91813 6.36125 6.77105L0.361252 1.77105C0.157035 1.60131 0.028611 1.3574 0.00423124 1.09297C-0.0201485 0.828545 0.0615134 0.565264 0.231252 0.361047C0.40099 0.156831 0.644902 0.0284066 0.909328 0.00402685C1.17375 -0.0203529 1.43704 0.0613083 1.64125 0.231047L7.00125 4.70105L12.3613 0.381047C12.508 0.258764 12.6868 0.181087 12.8763 0.157207C13.0659 0.133328 13.2583 0.164245 13.4308 0.246301C13.6034 0.328357 13.7488 0.458116 13.8499 0.620227C13.9509 0.782337 14.0035 0.970013 14.0013 1.16105Z" fill="white"/>
</svg>
