<svg width="52" height="44" viewBox="0 0 52 44" fill="none" xmlns="http://www.w3.org/2000/svg">
<path d="M2.42616 0C1.09432 0 0 1.05987 0 2.40687V32.9154C0 34.2357 1.0809 35.3207 2.42616 35.3207H28.2077L26.1231 38.9004C25.7652 39.5157 26.3303 40.2549 27.0247 40.0795L30.6528 39.1372L31.6271 42.753C31.8134 43.444 32.7495 43.5667 33.1106 42.9474L37.5549 35.3207H40.2863L44.7243 42.9474C45.0853 43.5667 46.0214 43.444 46.2078 42.753L47.1884 39.1372L50.8102 40.0795C51.5075 40.2626 52.0801 39.5189 51.718 38.9004L49.6256 35.3112C50.8743 35.1932 51.8272 34.1591 51.8272 32.9154V2.40687C51.8272 1.06431 50.725 0 49.3931 0H2.42616ZM2.42616 1.60719H49.3931C49.8557 1.60719 50.206 1.9639 50.206 2.40687V32.9154C50.206 33.3615 49.8494 33.715 49.3931 33.715H48.6972L45.8994 28.906C46.5907 27.7237 46.9843 26.3454 46.9843 24.8841C46.9843 20.4598 43.354 16.8544 38.8913 16.8544C34.4287 16.8544 30.7904 20.4598 30.7904 24.8841C30.7904 26.3664 31.201 27.7624 31.9118 28.9562L29.1392 33.715H2.42616C1.98884 33.715 1.61955 33.374 1.61955 32.9154V2.40687C1.61955 1.96391 1.96354 1.60719 2.42616 1.60719ZM20.246 4.81218C19.1641 4.81218 19.1641 6.39401 20.246 6.4178H31.5796C32.6694 6.4178 32.6694 4.83615 31.5796 4.81218H20.246ZM7.28639 10.4366H44.5392C45.6244 10.4366 45.6244 8.83095 44.5392 8.83095H7.28639C6.20616 8.83095 6.20616 10.4366 7.28639 10.4366ZM7.28639 12.8419C6.20564 12.8419 6.20564 14.4491 7.28639 14.4491H44.5392C45.62 14.4491 45.62 12.8419 44.5392 12.8419H7.28639ZM38.8913 18.46C42.4471 18.46 45.3711 21.3275 45.3711 24.8841C45.3711 28.4406 42.4471 31.3097 38.8913 31.3097C35.3039 31.3097 32.4116 28.4406 32.4116 24.8841C32.4116 21.3275 35.3039 18.46 38.8913 18.46ZM38.1591 20.2914L37.2133 22.6418L34.7665 22.8473C34.0658 22.9077 33.7832 23.8154 34.3174 24.2898L36.1789 25.9503L35.6143 28.4262C35.4498 29.1375 36.196 29.7002 36.7973 29.3184L38.8929 27.9919L40.9885 29.3152C41.5887 29.6935 42.3312 29.1338 42.17 28.4246L41.6022 25.9472L43.4637 24.2867C43.996 23.8109 43.7116 22.9049 43.0114 22.8457L40.5647 22.6387L39.6173 20.2883C39.4911 19.9764 39.2288 19.7854 38.8874 19.7854C38.5459 19.7854 38.2969 19.9778 38.1591 20.2914ZM38.8897 22.7391L39.2915 23.7347C39.4054 24.0175 39.6614 24.2109 39.9557 24.2365L40.9933 24.3227L40.2056 25.0268C39.981 25.2268 39.8829 25.5401 39.951 25.839L40.1916 26.8911L39.3027 26.3298C39.0497 26.1697 38.7317 26.1697 38.4787 26.3298L37.5914 26.8911L37.8302 25.8421C37.8996 25.5423 37.8012 25.2274 37.5756 25.0268L36.7848 24.3259L37.8223 24.2365C38.1178 24.2122 38.3754 24.0185 38.4898 23.7348L38.8897 22.7391ZM7.28639 28.8966C6.2091 28.8966 6.2091 30.5022 7.28639 30.5022H18.6264C19.713 30.5022 19.713 28.8966 18.6264 28.8966H7.28639ZM44.8489 30.3179L49.3456 38.0411L46.8167 37.3841C46.3868 37.2735 45.9473 37.5267 45.8314 37.9518L45.1497 40.4652L40.6358 32.7209C42.2843 32.3595 43.7451 31.5105 44.8489 30.3179ZM32.9651 30.3564C34.0757 31.539 35.5406 32.3834 37.1895 32.735L32.6915 40.4653L32.0098 37.9518C31.894 37.5236 31.4501 37.2695 31.0182 37.3841L28.4892 38.0411L32.9651 30.3564ZM38.9214 32.9796L39.3516 33.7182H38.4912L38.9214 32.9796Z" fill="white"/>
</svg>
