<svg width="51" height="51" viewBox="0 0 51 51" fill="none" xmlns="http://www.w3.org/2000/svg">
<path d="M2.58906 35.9728H15.8587V48.4726C15.8587 49.8532 16.9778 50.9726 18.3584 50.9726H38.3585C39.7394 50.9726 40.8585 49.8532 40.8585 48.4726V28.4725C40.8585 27.0916 39.7394 25.9725 38.3585 25.9725H25.8585V12.7034C25.8573 12.2368 25.6705 11.79 25.3385 11.4626C25.0147 11.147 24.5798 10.9712 24.1278 10.9728H3.35871C1.97779 10.9728 0.858398 12.0918 0.858398 13.4725V34.2416C0.859619 34.7082 1.047 35.155 1.37842 35.4824C1.70252 35.798 2.13709 35.9737 2.58906 35.9728ZM22.5253 35.9728H23.3588C24.7394 35.9728 25.8585 34.8531 25.8585 33.4725V32.6391H34.1916V44.306H22.5253V35.9728ZM24.1919 33.4725C24.1919 33.9327 23.8187 34.306 23.3588 34.306H5.90327L24.1919 16.0176V33.4725ZM38.3585 27.6391C38.819 27.6391 39.1919 28.0123 39.1919 28.4725V48.4726C39.1919 48.9328 38.819 49.3057 38.3585 49.3057H18.3584C17.8982 49.3057 17.5253 48.9328 17.5253 48.4726V35.9728H20.8585V44.306C20.8585 45.2264 21.6046 45.9726 22.5253 45.9726H34.1916C35.1123 45.9726 35.8588 45.2264 35.8588 44.306V32.6391C35.8588 31.719 35.1123 30.9725 34.1916 30.9725H25.8585V27.6391H38.3585ZM24.1919 12.7034V13.6608L3.5467 34.306H2.58906L2.52497 34.2416V32.9723L22.8537 12.6393H24.1278L24.1919 12.7034ZM3.35871 12.6393H20.4968L2.52497 30.6109V13.4725C2.52497 13.0123 2.8982 12.6393 3.35871 12.6393Z" fill="white"/>
<path d="M33.1625 1.09908C32.5311 0.838151 31.8048 0.987992 31.3293 1.47811L25.8581 7.29416C25.2142 7.93809 25.2066 8.97996 25.8407 9.63334L31.3464 15.4842C31.8231 15.9609 32.54 16.1031 33.1625 15.8452C33.7854 15.5873 34.1913 14.98 34.1913 14.3059V11.8059H40.0247V18.4725H37.525C36.846 18.4725 36.2354 18.8845 35.9799 19.5134C35.7251 20.1424 35.8774 20.8635 36.3651 21.3356L42.1796 26.8059C42.4939 27.1203 42.9206 27.2967 43.3649 27.2957C43.7967 27.2976 44.2118 27.1279 44.5182 26.8236L50.3699 21.3173C50.8463 20.841 50.9891 20.1241 50.7313 19.5015C50.4734 18.8787 49.8655 18.4728 49.1916 18.4725H46.6913V7.63901C46.6913 6.25839 45.5722 5.13931 44.1916 5.13931H34.1913V2.639C34.1919 1.96486 33.7854 1.35695 33.1625 1.09908ZM44.1916 6.80588C44.6515 6.80588 45.0248 7.17881 45.0248 7.63901V19.3059C45.0248 19.7658 45.3977 20.139 45.8582 20.139L49.21 20.122L43.3399 25.6093L37.525 20.139H40.8582C41.3184 20.139 41.6913 19.7658 41.6913 19.3059V11.8059C41.6913 10.8852 40.9452 10.139 40.0247 10.139H33.3582C32.898 10.139 32.5247 10.5123 32.5247 10.9728L32.5424 14.3236L27.0547 8.45506L32.5247 2.639V5.97244C32.5247 6.43265 32.898 6.80588 33.3582 6.80588H44.1916Z" fill="white"/>
</svg>
