<svg width="50" height="36" viewBox="0 0 50 36" fill="none" xmlns="http://www.w3.org/2000/svg">
<path d="M11.667 25.8334C8.90948 25.8334 6.66699 28.0759 6.66699 30.8334C6.66699 33.591 8.90948 35.8335 11.667 35.8335C14.4245 35.8335 16.667 33.591 16.667 30.8334C16.667 28.0759 14.4244 25.8334 11.667 25.8334ZM11.667 34.1668C9.82862 34.1668 8.33369 32.6717 8.33369 30.8334C8.33369 28.9951 9.82872 27.5001 11.667 27.5001C13.5053 27.5001 15.0003 28.9952 15.0003 30.8334C15.0003 32.6717 13.5053 34.1668 11.667 34.1668Z" fill="white"/>
<path d="M40 25.8334C37.2425 25.8334 35 28.0759 35 30.8334C35 33.591 37.2425 35.8335 40 35.8335C42.7575 35.8335 45 33.591 45 30.8334C45 28.0759 42.7575 25.8334 40 25.8334ZM40 34.1668C38.1616 34.1668 36.6667 32.6717 36.6667 30.8334C36.6667 28.9951 38.1617 27.5001 40 27.5001C41.8384 27.5001 43.3333 28.9952 43.3333 30.8334C43.3333 32.6717 41.8384 34.1668 40 34.1668Z" fill="white"/>
<path d="M49.8678 21.216L42.3678 9.54927C42.2145 9.31089 41.9503 9.16675 41.6669 9.16675H32.5003C32.0395 9.16675 31.667 9.54009 31.667 10.0001V30.8334C31.667 31.2942 32.0395 31.6667 32.5003 31.6667H35.8336V30H33.3336V10.8335H41.2119L48.3336 21.9118V30.0002H44.1669V31.6668H49.1669C49.6278 31.6668 50.0002 31.2943 50.0002 30.8335V21.6668C50.0003 21.5076 49.9545 21.3501 49.8678 21.216Z" fill="white"/>
<path d="M36.6666 20V14.1667H43.3333V12.5H35.8333C35.3725 12.5 35 12.8733 35 13.3333V20.8333C35 21.2942 35.3725 21.6666 35.8333 21.6666H48.3333V19.9999H36.6666V20Z" fill="white"/>
<path d="M32.5001 3.33344H0.833302C0.373341 3.33344 0 3.70678 0 4.16674V30.8335C0 31.2943 0.373341 31.6668 0.833302 31.6668H7.50001V30.0001H1.6667V5.00004H31.6668V30.0001H15.8333V31.6668H32.5001C32.9609 31.6668 33.3334 31.2943 33.3334 30.8335V4.16674C33.3334 3.70678 32.9609 3.33344 32.5001 3.33344Z" fill="white"/>
<path d="M5.83302 26.6667H0.833008V28.3334H5.83302V26.6667Z" fill="white"/>
<path d="M31.6667 26.6667H17.5V28.3334H31.6667V26.6667Z" fill="white"/>
<path d="M49.1673 26.6667H45.834V28.3334H49.1673V26.6667Z" fill="white"/>
<path d="M32.4998 6.66669H3.33301V8.33339H32.4998V6.66669Z" fill="white"/>
<path d="M12.4997 30.0001H10.833V31.6668H12.4997V30.0001Z" fill="white"/>
<path d="M40.8337 30.0001H39.167V31.6668H40.8337V30.0001Z" fill="white"/>
<path d="M14.9997 0H3.33301V1.6667H14.9997V0Z" fill="white"/>
<path d="M1.6667 0H0V1.6667H1.6667V0Z" fill="white"/>
</svg>
