<svg width="50" height="50" viewBox="0 0 50 50" fill="none" xmlns="http://www.w3.org/2000/svg">
<path d="M49.5233 12.1599L25.3853 0.090919C25.2657 0.0311273 25.1338 0 25 0C24.8662 0 24.7343 0.0311273 24.6147 0.090919L0.476737 12.1599C0.333433 12.2315 0.212917 12.3416 0.128711 12.4779C0.044504 12.6142 -6.18035e-05 12.7712 1.28478e-05 12.9314V37.0693C-0.000865623 37.2303 0.0433214 37.3882 0.127573 37.5254C0.211824 37.6625 0.332775 37.7733 0.476737 37.8452L24.6147 49.9142C24.7343 49.974 24.8662 50.0051 25 50.0051C25.1338 50.0051 25.2657 49.974 25.3853 49.9142L49.5233 37.8452C49.6672 37.7733 49.7882 37.6625 49.8724 37.5254C49.9567 37.3882 50.0009 37.2303 50 37.0693V12.9314C50.0001 12.7712 49.9555 12.6142 49.8713 12.4779C49.7871 12.3416 49.6666 12.2315 49.5233 12.1599ZM25 24.0366L18.2612 20.6668L39.8009 9.22453L47.2146 12.9314L25 24.0366ZM11.3647 17.2185L32.9043 5.77626L37.9043 8.27626L16.3672 19.7202L11.3647 17.2185ZM10.3448 18.6366L15.5172 21.2228V28.0918L13.5405 26.115C13.3789 25.9534 13.1597 25.8625 12.931 25.8625H10.3448V18.6366ZM25 1.82626L31.0103 4.82799L9.4707 16.2719L2.78967 12.9314L25 1.82626ZM1.72415 14.3263L8.6207 17.7745V26.7245C8.6207 26.9532 8.71152 27.1724 8.87319 27.3341C9.03486 27.4958 9.25413 27.5866 9.48277 27.5866H12.5741L15.7698 30.7823C15.8904 30.9028 16.044 30.9849 16.2112 31.0181C16.3784 31.0514 16.5517 31.0343 16.7092 30.9691C16.8667 30.9038 17.0013 30.7934 17.096 30.6516C17.1908 30.5099 17.2413 30.3433 17.2414 30.1728V22.0849L24.1379 25.5331V47.7435L1.72415 36.5366V14.3263ZM25.8621 47.7435V25.5331L48.2759 14.3263V36.5366L25.8621 47.7435Z" fill="white"/>
</svg>
