<svg width="50" height="51" viewBox="0 0 50 51" fill="none" xmlns="http://www.w3.org/2000/svg">
<path d="M13.3327 45.8329H11.666V47.4996H13.3327V45.8329Z" fill="white"/>
<path d="M30.8322 35.833H16.6656V23.333C16.6656 23.112 16.5778 22.9001 16.4215 22.7438C16.2653 22.5875 16.0533 22.4997 15.8323 22.4997H0.832353C0.61134 22.4997 0.39938 22.5875 0.2431 22.7438C0.0868204 22.9001 -0.000976562 23.112 -0.000976562 23.333V49.9996C-0.000976562 50.2206 0.0868204 50.4325 0.2431 50.5888C0.39938 50.7451 0.61134 50.8329 0.832353 50.8329H30.8322C31.0532 50.8329 31.2652 50.7451 31.4215 50.5888C31.5778 50.4325 31.6655 50.2206 31.6655 49.9996V36.6663C31.6655 36.4453 31.5778 36.2333 31.4215 36.077C31.2652 35.9208 31.0532 35.833 30.8322 35.833ZM21.6656 37.4996H24.9989V40.8329H21.6656V37.4996ZM6.66566 24.1664H9.99898V27.4997H6.66566V24.1664ZM1.66568 24.1664H4.999V28.333C4.999 28.554 5.0868 28.766 5.24308 28.9223C5.39936 29.0785 5.61132 29.1663 5.83233 29.1663H10.8323C11.0533 29.1663 11.2653 29.0785 11.4216 28.9223C11.5778 28.766 11.6656 28.554 11.6656 28.333V24.1664H14.999V35.833H1.66568V24.1664ZM6.66566 37.4996H9.99898V40.8329H6.66566V37.4996ZM1.66568 37.4996H4.999V41.6663C4.999 41.8873 5.0868 42.0993 5.24308 42.2555C5.39936 42.4118 5.61132 42.4996 5.83233 42.4996H10.8323C11.0533 42.4996 11.2653 42.4118 11.4216 42.2555C11.5778 42.0993 11.6656 41.8873 11.6656 41.6663V37.4996H14.999V49.1662H1.66568V37.4996ZM29.9989 49.1662H16.6656V37.4996H19.9989V41.6663C19.9989 41.8873 20.0867 42.0993 20.243 42.2555C20.3993 42.4118 20.6112 42.4996 20.8323 42.4996H25.8322C26.0533 42.4996 26.2652 42.4118 26.4215 42.2555C26.5778 42.0993 26.6656 41.8873 26.6656 41.6663V37.4996H29.9989V49.1662Z" fill="white"/>
<path d="M28.3327 45.8329H26.666V47.4996H28.3327V45.8329Z" fill="white"/>
<path d="M13.3327 32.4996H11.666V34.1663H13.3327V32.4996Z" fill="white"/>
<path d="M48.9701 10.8097C49.0341 10.8253 49.0997 10.8331 49.1656 10.8331C49.3116 10.833 49.4551 10.7946 49.5816 10.7218C49.7082 10.649 49.8135 10.5442 49.887 10.4181C49.9627 10.2848 50.0014 10.1338 49.9989 9.98057V6.66642C49.9989 6.47942 49.936 6.29787 49.8203 6.15095C49.7046 6.00403 49.5429 5.9003 49.3611 5.85642L25.1945 0.0231166C25.0661 -0.00803105 24.932 -0.00803105 24.8035 0.0231166L0.636949 5.85642C0.455172 5.9003 0.293435 6.00403 0.17775 6.15095C0.0620647 6.29787 -0.000844983 6.47942 -0.000861057 6.66642V9.97609C-0.00370921 10.1506 0.046174 10.3219 0.142263 10.4675C0.237617 10.6078 0.373419 10.7156 0.531592 10.7768C0.689764 10.8379 0.862804 10.8494 1.02768 10.8097L2.49913 10.4546V20.833H4.16579V10.0523L24.999 5.02361L45.8323 10.0523V49.1662H40.8323V16.6664C40.8323 16.4454 40.7445 16.2334 40.5882 16.0771C40.4319 15.9208 40.22 15.833 39.999 15.833H9.99909C9.77808 15.833 9.56612 15.9208 9.40984 16.0771C9.25356 16.2334 9.16576 16.4454 9.16576 16.6664V19.9997C9.16576 20.2207 9.25356 20.4327 9.40984 20.5889C9.56612 20.7452 9.77808 20.833 9.99909 20.833H39.1656V22.4997H18.3324V24.1663H39.1656V25.833H18.3324V27.4997H39.1656V29.1663H18.3324V30.833H39.1656V49.1662H33.3323V50.8329H49.9989V49.1662H47.4989V10.4546L48.9701 10.8097ZM10.8324 19.1664V17.4997H39.1656V19.1664H10.8324ZM24.999 3.3331C24.9332 3.33307 24.8675 3.3409 24.8035 3.35643L1.6658 8.94131V7.32267L24.999 1.6904L48.3323 7.32267V8.94141L25.1945 3.35643C25.1305 3.3409 25.0649 3.33307 24.999 3.3331Z" fill="white"/>
<path d="M26.6653 13.333C27.3284 13.333 27.9643 13.0697 28.4331 12.6008C28.9019 12.132 29.1653 11.4961 29.1653 10.8331C29.1653 10.17 28.9019 9.53414 28.4331 9.0653C27.9643 8.59646 27.3284 8.33307 26.6653 8.33307H23.332C22.669 8.33307 22.0331 8.59646 21.5643 9.0653C21.0954 9.53414 20.832 10.17 20.832 10.8331C20.832 11.4961 21.0954 12.132 21.5643 12.6008C22.0331 13.0697 22.669 13.333 23.332 13.333H26.6653ZM22.4987 10.8331C22.4989 10.6121 22.5868 10.4003 22.743 10.2441C22.8993 10.0879 23.1111 9.99998 23.332 9.99973H26.6653C26.8864 9.99973 27.0983 10.0875 27.2546 10.2438C27.4109 10.4001 27.4987 10.612 27.4987 10.8331C27.4987 11.0541 27.4109 11.266 27.2546 11.4223C27.0983 11.5786 26.8864 11.6664 26.6653 11.6664H23.332C23.1111 11.6661 22.8993 11.5783 22.743 11.422C22.5868 11.2658 22.4989 11.054 22.4987 10.8331Z" fill="white"/>
</svg>
