<svg width="36" height="50" viewBox="0 0 36 50" fill="none" xmlns="http://www.w3.org/2000/svg">
<path d="M28.6744 19.5239C31.2131 15.871 32.8534 11.2642 33.0631 7.28864H34.5466C35.017 7.28864 35.3989 6.90739 35.3989 6.43636V0.852273C35.3989 0.38125 35.017 0 34.5466 0H0.852273C0.381818 0 0 0.38125 0 0.852273V6.43636C0 6.90739 0.381818 7.28864 0.852273 7.28864H2.33579C2.54545 11.2642 4.1858 15.871 6.72386 19.5233C8.41307 21.9545 10.3648 23.8193 12.4437 25.0011C10.3653 26.1801 8.41307 28.0432 6.72443 30.4761C4.18579 34.129 2.54545 38.7358 2.33579 42.7114H0.852273C0.381818 42.7114 0 43.0926 0 43.5636V49.1477C0 49.6187 0.381818 50 0.852273 50H34.5472C35.0176 50 35.3994 49.6187 35.3994 49.1477V43.5636C35.3994 43.0926 35.0176 42.7114 34.5472 42.7114H33.0631C32.8534 38.7358 31.2131 34.129 28.675 30.4767C26.9864 28.0449 25.033 26.1812 22.9511 25.0017C25.0341 23.8182 26.9875 21.954 28.6744 19.5239ZM1.70455 5.58409V1.70455H33.6949V5.58409M33.6943 44.4159V48.2955H1.70455V44.4159M20.6574 24.2057C19.9352 24.4517 19.9369 25.5551 20.6585 25.8006C23.046 26.7 25.3341 28.6534 27.275 31.4489H27.2756C29.6239 34.8284 31.1477 39.0631 31.3585 42.7114H4.04091C4.25114 39.0636 5.77557 34.8284 8.12443 31.4489C10.067 28.6517 12.3528 26.6983 14.7358 25.8006C15.4574 25.5551 15.4591 24.4523 14.7369 24.2057C12.3528 23.3023 10.0659 21.3472 8.12386 18.5511C5.77557 15.1716 4.2517 10.9369 4.04091 7.28864H31.358C31.1477 10.9364 29.6233 15.1716 27.2744 18.5511C25.3352 21.3449 23.0472 23.3 20.6574 24.2057Z" fill="white"/>
<path d="M6.81543 40.3994C6.81543 40.8704 7.19725 41.2517 7.6677 41.2517H27.7313C28.2018 41.2517 28.5836 40.8704 28.5836 40.3994C28.5836 37.4318 26.1694 35.0176 23.2012 35.0176H12.1972C9.22964 35.017 6.81543 37.4312 6.81543 40.3994ZM26.7791 39.5472H8.61998C9.0052 37.929 10.4632 36.7222 12.1978 36.7222H23.2018C24.9359 36.7216 26.3944 37.929 26.7791 39.5472Z" fill="white"/>
<path d="M26.5615 10.5926H8.83762C8.36717 10.5926 7.98535 10.9739 7.98535 11.4449C7.98535 16.7761 12.3183 23.2148 17.6996 23.2148C23.0808 23.2148 27.4138 16.7756 27.4138 11.4449C27.4138 10.9739 27.0319 10.5926 26.5615 10.5926ZM17.6996 21.5102C13.6535 21.5102 10.1507 16.6403 9.73194 12.2972H25.6677C25.2484 16.6403 21.7456 21.5102 17.6996 21.5102Z" fill="white"/>
<path d="M17.6999 27.2722C18.1704 27.2722 18.5522 26.8909 18.5522 26.4199V25C18.5522 24.529 18.1704 24.1477 17.6999 24.1477C17.2295 24.1477 16.8477 24.529 16.8477 25V26.4199C16.8477 26.8903 17.2295 27.2722 17.6999 27.2722Z" fill="white"/>
<path d="M16.8477 31.0841C16.8477 31.5551 17.2295 31.9364 17.6999 31.9364C18.1704 31.9364 18.5522 31.5551 18.5522 31.0841V30.1017C18.5522 29.6307 18.1704 29.2495 17.6999 29.2495C17.2295 29.2495 16.8477 29.6307 16.8477 30.1017V31.0841Z" fill="white"/>
</svg>
