<svg width="1920" height="1752" viewBox="0 0 1920 1752" fill="none" xmlns="http://www.w3.org/2000/svg">
<g filter="url(#filter0_i_7_311)">
<path d="M1920 29L1915.19 29.4555L1910.38 29.9109L1905.56 30.3661L1900.75 30.8209L1895.94 31.2753L1891.13 31.7291L1886.32 32.1823L1881.5 32.6346L1876.69 33.0861L1871.88 33.5366L1867.07 33.986L1862.26 34.4341L1857.44 34.8808L1852.63 35.3262L1847.82 35.7699L1843.01 36.212L1838.2 36.6523L1833.38 37.0908L1828.57 37.5272L1823.76 37.9615L1818.95 38.3936L1814.14 38.8234L1809.32 39.2508L1804.51 39.6756L1799.7 40.0978L1794.89 40.5173L1790.08 40.9339L1785.26 41.3476L1780.45 41.7582L1775.64 42.1657L1770.83 42.5699L1766.02 42.9709L1761.2 43.3683L1756.39 43.7622L1751.58 44.1525L1746.77 44.5389L1741.95 44.9216L1737.14 45.3004L1732.33 45.6752L1727.52 46.0458L1722.71 46.4122L1717.89 46.7743L1713.08 47.132L1708.27 47.4853L1703.46 47.834L1698.65 48.178L1693.83 48.5173L1689.02 48.8519L1684.21 49.1815L1679.4 49.5061L1674.59 49.8257L1669.77 50.1401L1664.96 50.4493L1660.15 50.7532L1655.34 51.0518L1650.53 51.3449L1645.71 51.6325L1640.9 51.9145L1636.09 52.1909L1631.28 52.4615L1626.47 52.7263L1621.65 52.9854L1616.84 53.2384L1612.03 53.4855L1607.22 53.7266L1602.41 53.9615L1597.59 54.1903L1592.78 54.4129L1587.97 54.6292L1583.16 54.8392L1578.35 55.0428L1573.53 55.24L1568.72 55.4307L1563.91 55.6149L1559.1 55.7925L1554.29 55.9635L1549.47 56.1279L1544.66 56.2855L1539.85 56.4365L1535.04 56.5806L1530.23 56.718L1525.41 56.8485L1520.6 56.9722L1515.79 57.0889L1510.98 57.1987L1506.17 57.3016L1501.35 57.3975L1496.54 57.4863L1491.73 57.5682L1486.92 57.6429L1482.11 57.7107L1477.29 57.7713L1472.48 57.8249L1467.67 57.8713L1462.86 57.9106L1458.05 57.9427L1453.23 57.9678L1448.42 57.9857L1443.61 57.9964L1438.8 58L1433.98 57.9964L1429.17 57.9857L1424.36 57.9678L1419.55 57.9427L1414.74 57.9106L1409.92 57.8713L1405.11 57.8249L1400.3 57.7713L1395.49 57.7107L1390.68 57.6429L1385.86 57.5682L1381.05 57.4863L1376.24 57.3975L1371.43 57.3016L1366.62 57.1987L1361.8 57.0889L1356.99 56.9722L1352.18 56.8485L1347.37 56.718L1342.56 56.5806L1337.74 56.4365L1332.93 56.2855L1328.12 56.1279L1323.31 55.9635L1318.5 55.7925L1313.68 55.6149L1308.87 55.4307L1304.06 55.24L1299.25 55.0428L1294.44 54.8392L1289.62 54.6292L1284.81 54.4129L1280 54.1903L1275.19 53.9615L1270.38 53.7266L1265.56 53.4855L1260.75 53.2384L1255.94 52.9854L1251.13 52.7263L1246.32 52.4615L1241.5 52.1909L1236.69 51.9145L1231.88 51.6325L1227.07 51.3449L1222.26 51.0518L1217.44 50.7532L1212.63 50.4493L1207.82 50.1401L1203.01 49.8257L1198.2 49.5061L1193.38 49.1815L1188.57 48.8519L1183.76 48.5173L1178.95 48.178L1174.14 47.834L1169.32 47.4853L1164.51 47.132L1159.7 46.7743L1154.89 46.4122L1150.08 46.0458L1145.26 45.6752L1140.45 45.3004L1135.64 44.9216L1130.83 44.5389L1126.02 44.1525L1121.2 43.7622L1116.39 43.3683L1111.58 42.9709L1106.77 42.5699L1101.95 42.1657L1097.14 41.7582L1092.33 41.3476L1087.52 40.9339L1082.71 40.5173L1077.89 40.0978L1073.08 39.6756L1068.27 39.2508L1063.46 38.8234L1058.65 38.3936L1053.83 37.9615L1049.02 37.5272L1044.21 37.0908L1039.4 36.6523L1034.59 36.212L1029.77 35.7699L1024.96 35.3262L1020.15 34.8808L1015.34 34.4341L1010.53 33.986L1005.71 33.5366L1000.9 33.0861L996.09 32.6346L991.278 32.1823L986.466 31.7291L981.654 31.2753L976.842 30.8209L972.03 30.3661L967.218 29.9109L962.406 29.4555L957.594 29L952.782 28.5445L947.97 28.0891L943.158 27.6339L938.346 27.1791L933.534 26.7247L928.722 26.2709L923.91 25.8177L919.098 25.3654L914.286 24.9139L909.474 24.4634L904.662 24.014L899.85 23.5659L895.038 23.1192L890.226 22.6738L885.414 22.2301L880.602 21.788L875.79 21.3477L870.978 20.9092L866.165 20.4728L861.353 20.0385L856.541 19.6064L851.729 19.1766L846.917 18.7492L842.105 18.3244L837.293 17.9022L832.481 17.4827L827.669 17.0661L822.857 16.6524L818.045 16.2418L813.233 15.8343L808.421 15.4301L803.609 15.0291L798.797 14.6317L793.985 14.2378L789.173 13.8475L784.361 13.4611L779.549 13.0784L774.737 12.6996L769.925 12.3248L765.113 11.9542L760.301 11.5878L755.489 11.2257L750.677 10.868L745.865 10.5147L741.053 10.166L736.241 9.82196L731.429 9.48267L726.617 9.14813L721.805 8.81854L716.993 8.4939L712.181 8.17432L707.369 7.85992L702.556 7.55072L697.744 7.24677L692.932 6.94824L688.12 6.65509L683.308 6.36749L678.496 6.08551L673.684 5.80914L668.872 5.53851L664.06 5.27368L659.248 5.01465L654.436 4.7616L649.624 4.51453L644.812 4.27344L640 4.03845L635.188 3.80969L630.376 3.5871L625.564 3.37079L620.752 3.16083L615.94 2.95721L611.128 2.76001L606.316 2.56934L601.504 2.38513L596.692 2.20752L591.88 2.0365L587.068 1.87213L582.256 1.71448L577.444 1.56354L572.632 1.41937L567.82 1.28198L563.008 1.15149L558.196 1.02783L553.384 0.911072L548.572 0.80127L543.76 0.698425L538.947 0.602539L534.135 0.513672L529.323 0.431824L524.511 0.357056L519.699 0.289307L514.887 0.228699L510.075 0.17511L505.263 0.128723L500.451 0.0894165L495.639 0.057251L490.827 0.0321655L486.015 0.0142822L481.203 0.00360107L476.391 0L471.579 0.00360107L466.767 0.0142822L461.955 0.0321655L457.143 0.057251L452.331 0.0894165L447.519 0.128723L442.707 0.17511L437.895 0.228699L433.083 0.289307L428.271 0.357056L423.459 0.431824L418.647 0.513672L413.835 0.602539L409.023 0.698425L404.211 0.80127L399.399 0.911072L394.587 1.02783L389.775 1.15149L384.963 1.28198L380.15 1.41937L375.338 1.56354L370.526 1.71448L365.714 1.87213L360.902 2.0365L356.09 2.20752L351.278 2.38513L346.466 2.56934L341.654 2.76001L336.842 2.95721L332.03 3.16083L327.218 3.37079L322.406 3.5871L317.594 3.80969L312.782 4.03845L307.97 4.27344L303.158 4.51453L298.346 4.7616L293.534 5.01465L288.722 5.27368L283.91 5.53851L279.098 5.80914L274.286 6.08551L269.474 6.36749L264.662 6.65509L259.85 6.94824L255.038 7.24677L250.226 7.55072L245.414 7.85992L240.602 8.17432L235.79 8.4939L230.978 8.81854L226.166 9.14813L221.354 9.48267L216.541 9.82196L211.729 10.166L206.917 10.5147L202.105 10.868L197.293 11.2257L192.481 11.5878L187.669 11.9542L182.857 12.3248L178.045 12.6996L173.233 13.0784L168.421 13.4611L163.609 13.8475L158.797 14.2378L153.985 14.6317L149.173 15.0291L144.361 15.4301L139.549 15.8343L134.737 16.2418L129.925 16.6524L125.113 17.0661L120.301 17.4827L115.489 17.9022L110.677 18.3244L105.865 18.7492L101.053 19.1766L96.2407 19.6064L91.4287 20.0385L86.6166 20.4728L81.8046 20.9092L76.9926 21.3477L72.1805 21.788L67.3685 22.2301L62.5565 22.6738L57.7445 23.1192L52.9324 23.5659L48.1204 24.014L43.3083 24.4634L38.4963 24.9139L33.6843 25.3654L28.8723 25.8177L24.0603 26.2709L19.2482 26.7247L14.4362 27.1791L9.62415 27.6339L4.81213 28.0891L0.00012207 28.5445V850H1920V29Z" fill="#050783"/>
<path d="M0 1723L4.81203 1722.54L9.62406 1722.09L14.4361 1721.63L19.2481 1721.18L24.0602 1720.72L28.8722 1720.27L33.6842 1719.82L38.4962 1719.37L43.3083 1718.91L48.1203 1718.46L52.9323 1718.01L57.7444 1717.57L62.5564 1717.12L67.3684 1716.67L72.1805 1716.23L76.9925 1715.79L81.8045 1715.35L86.6165 1714.91L91.4286 1714.47L96.2406 1714.04L101.053 1713.61L105.865 1713.18L110.677 1712.75L115.489 1712.32L120.301 1711.9L125.113 1711.48L129.925 1711.07L134.737 1710.65L139.549 1710.24L144.361 1709.83L149.173 1709.43L153.985 1709.03L158.797 1708.63L163.609 1708.24L168.421 1707.85L173.233 1707.46L178.045 1707.08L182.857 1706.7L187.669 1706.32L192.481 1705.95L197.293 1705.59L202.105 1705.23L206.917 1704.87L211.729 1704.51L216.541 1704.17L221.353 1703.82L226.165 1703.48L230.977 1703.15L235.789 1702.82L240.601 1702.49L245.414 1702.17L250.226 1701.86L255.038 1701.55L259.85 1701.25L264.662 1700.95L269.474 1700.66L274.286 1700.37L279.098 1700.09L283.91 1699.81L288.722 1699.54L293.534 1699.27L298.346 1699.01L303.158 1698.76L307.97 1698.51L312.782 1698.27L317.594 1698.04L322.406 1697.81L327.218 1697.59L332.03 1697.37L336.842 1697.16L341.654 1696.96L346.466 1696.76L351.278 1696.57L356.09 1696.39L360.902 1696.21L365.714 1696.04L370.526 1695.87L375.338 1695.71L380.15 1695.56L384.962 1695.42L389.774 1695.28L394.586 1695.15L399.398 1695.03L404.211 1694.91L409.023 1694.8L413.835 1694.7L418.647 1694.6L423.459 1694.51L428.271 1694.43L433.083 1694.36L437.895 1694.29L442.707 1694.23L447.519 1694.18L452.331 1694.13L457.143 1694.09L461.955 1694.06L466.767 1694.03L471.579 1694.01L476.391 1694L481.203 1694L486.015 1694L490.827 1694.01L495.639 1694.03L500.451 1694.06L505.263 1694.09L510.075 1694.13L514.887 1694.18L519.699 1694.23L524.511 1694.29L529.323 1694.36L534.135 1694.43L538.947 1694.51L543.759 1694.6L548.571 1694.7L553.383 1694.8L558.195 1694.91L563.008 1695.03L567.82 1695.15L572.632 1695.28L577.444 1695.42L582.256 1695.56L587.068 1695.71L591.88 1695.87L596.692 1696.04L601.504 1696.21L606.316 1696.39L611.128 1696.57L615.94 1696.76L620.752 1696.96L625.564 1697.16L630.376 1697.37L635.188 1697.59L640 1697.81L644.812 1698.04L649.624 1698.27L654.436 1698.51L659.248 1698.76L664.06 1699.01L668.872 1699.27L673.684 1699.54L678.496 1699.81L683.308 1700.09L688.12 1700.37L692.932 1700.66L697.744 1700.95L702.556 1701.25L707.368 1701.55L712.18 1701.86L716.992 1702.17L721.805 1702.49L726.617 1702.82L731.429 1703.15L736.241 1703.48L741.053 1703.82L745.865 1704.17L750.677 1704.51L755.489 1704.87L760.301 1705.23L765.113 1705.59L769.925 1705.95L774.737 1706.32L779.549 1706.7L784.361 1707.08L789.173 1707.46L793.985 1707.85L798.797 1708.24L803.609 1708.63L808.421 1709.03L813.233 1709.43L818.045 1709.83L822.857 1710.24L827.669 1710.65L832.481 1711.07L837.293 1711.48L842.105 1711.9L846.917 1712.32L851.729 1712.75L856.541 1713.18L861.353 1713.61L866.165 1714.04L870.977 1714.47L875.789 1714.91L880.601 1715.35L885.414 1715.79L890.226 1716.23L895.038 1716.67L899.85 1717.12L904.662 1717.57L909.474 1718.01L914.286 1718.46L919.098 1718.91L923.91 1719.37L928.722 1719.82L933.534 1720.27L938.346 1720.72L943.158 1721.18L947.97 1721.63L952.782 1722.09L957.594 1722.54L962.406 1723L967.218 1723.46L972.03 1723.91L976.842 1724.37L981.654 1724.82L986.466 1725.28L991.278 1725.73L996.09 1726.18L1000.9 1726.63L1005.71 1727.09L1010.53 1727.54L1015.34 1727.99L1020.15 1728.43L1024.96 1728.88L1029.77 1729.33L1034.59 1729.77L1039.4 1730.21L1044.21 1730.65L1049.02 1731.09L1053.83 1731.53L1058.65 1731.96L1063.46 1732.39L1068.27 1732.82L1073.08 1733.25L1077.89 1733.68L1082.71 1734.1L1087.52 1734.52L1092.33 1734.93L1097.14 1735.35L1101.95 1735.76L1106.77 1736.17L1111.58 1736.57L1116.39 1736.97L1121.2 1737.37L1126.02 1737.76L1130.83 1738.15L1135.64 1738.54L1140.45 1738.92L1145.26 1739.3L1150.08 1739.68L1154.89 1740.05L1159.7 1740.41L1164.51 1740.77L1169.32 1741.13L1174.14 1741.49L1178.95 1741.83L1183.76 1742.18L1188.57 1742.52L1193.38 1742.85L1198.2 1743.18L1203.01 1743.51L1207.82 1743.83L1212.63 1744.14L1217.44 1744.45L1222.26 1744.75L1227.07 1745.05L1231.88 1745.34L1236.69 1745.63L1241.5 1745.91L1246.32 1746.19L1251.13 1746.46L1255.94 1746.73L1260.75 1746.99L1265.56 1747.24L1270.38 1747.49L1275.19 1747.73L1280 1747.96L1284.81 1748.19L1289.62 1748.41L1294.44 1748.63L1299.25 1748.84L1304.06 1749.04L1308.87 1749.24L1313.68 1749.43L1318.5 1749.61L1323.31 1749.79L1328.12 1749.96L1332.93 1750.13L1337.74 1750.29L1342.56 1750.44L1347.37 1750.58L1352.18 1750.72L1356.99 1750.85L1361.8 1750.97L1366.62 1751.09L1371.43 1751.2L1376.24 1751.3L1381.05 1751.4L1385.86 1751.49L1390.68 1751.57L1395.49 1751.64L1400.3 1751.71L1405.11 1751.77L1409.92 1751.82L1414.74 1751.87L1419.55 1751.91L1424.36 1751.94L1429.17 1751.97L1433.98 1751.99L1438.8 1752L1443.61 1752L1448.42 1752L1453.23 1751.99L1458.05 1751.97L1462.86 1751.94L1467.67 1751.91L1472.48 1751.87L1477.29 1751.82L1482.11 1751.77L1486.92 1751.71L1491.73 1751.64L1496.54 1751.57L1501.35 1751.49L1506.17 1751.4L1510.98 1751.3L1515.79 1751.2L1520.6 1751.09L1525.41 1750.97L1530.23 1750.85L1535.04 1750.72L1539.85 1750.58L1544.66 1750.44L1549.47 1750.29L1554.29 1750.13L1559.1 1749.96L1563.91 1749.79L1568.72 1749.61L1573.53 1749.43L1578.35 1749.24L1583.16 1749.04L1587.97 1748.84L1592.78 1748.63L1597.59 1748.41L1602.41 1748.19L1607.22 1747.96L1612.03 1747.73L1616.84 1747.49L1621.65 1747.24L1626.47 1746.99L1631.28 1746.73L1636.09 1746.46L1640.9 1746.19L1645.71 1745.91L1650.53 1745.63L1655.34 1745.34L1660.15 1745.05L1664.96 1744.75L1669.77 1744.45L1674.59 1744.14L1679.4 1743.83L1684.21 1743.51L1689.02 1743.18L1693.83 1742.85L1698.65 1742.52L1703.46 1742.18L1708.27 1741.83L1713.08 1741.49L1717.89 1741.13L1722.71 1740.77L1727.52 1740.41L1732.33 1740.05L1737.14 1739.68L1741.95 1739.3L1746.77 1738.92L1751.58 1738.54L1756.39 1738.15L1761.2 1737.76L1766.01 1737.37L1770.83 1736.97L1775.64 1736.57L1780.45 1736.17L1785.26 1735.76L1790.08 1735.35L1794.89 1734.93L1799.7 1734.52L1804.51 1734.1L1809.32 1733.68L1814.14 1733.25L1818.95 1732.82L1823.76 1732.39L1828.57 1731.96L1833.38 1731.53L1838.2 1731.09L1843.01 1730.65L1847.82 1730.21L1852.63 1729.77L1857.44 1729.33L1862.26 1728.88L1867.07 1728.43L1871.88 1727.99L1876.69 1727.54L1881.5 1727.09L1886.32 1726.63L1891.13 1726.18L1895.94 1725.73L1900.75 1725.28L1905.56 1724.82L1910.38 1724.37L1915.19 1723.91L1920 1723.46V673L0 665V1723Z" fill="#050783"/>
</g>
<defs>
<filter id="filter0_i_7_311" x="0" y="0" width="1920" height="1756" filterUnits="userSpaceOnUse" color-interpolation-filters="sRGB">
<feFlood flood-opacity="0" result="BackgroundImageFix"/>
<feBlend mode="normal" in="SourceGraphic" in2="BackgroundImageFix" result="shape"/>
<feColorMatrix in="SourceAlpha" type="matrix" values="0 0 0 0 0 0 0 0 0 0 0 0 0 0 0 0 0 0 127 0" result="hardAlpha"/>
<feOffset dy="4"/>
<feGaussianBlur stdDeviation="10"/>
<feComposite in2="hardAlpha" operator="arithmetic" k2="-1" k3="1"/>
<feColorMatrix type="matrix" values="0 0 0 0 0 0 0 0 0 0 0 0 0 0 0 0 0 0 0.1 0"/>
<feBlend mode="normal" in2="shape" result="effect1_innerShadow_7_311"/>
</filter>
</defs>
</svg>
